<?xml version="1.0" encoding="UTF-8" standalone="no"?>
<!-- Created with Inkscape (http://www.inkscape.org/) -->

<svg
   width="512"
   height="512"
   viewBox="0 0 135.46666 135.46667"
   version="1.1"
   id="svg1"
   inkscape:version="1.3.2 (091e20ef0f, 2023-11-25, custom)"
   sodipodi:docname="gateau_2.svg"
   xmlns:inkscape="http://www.inkscape.org/namespaces/inkscape"
   xmlns:sodipodi="http://sodipodi.sourceforge.net/DTD/sodipodi-0.dtd"
   xmlns="http://www.w3.org/2000/svg"
   xmlns:svg="http://www.w3.org/2000/svg">
  <sodipodi:namedview
     id="namedview1"
     pagecolor="#ffffff"
     bordercolor="#999999"
     borderopacity="1"
     inkscape:showpageshadow="0"
     inkscape:pageopacity="0"
     inkscape:pagecheckerboard="0"
     inkscape:deskcolor="#d1d1d1"
     inkscape:document-units="px"
     showguides="true"
     inkscape:zoom="0.44891649"
     inkscape:cx="268.42409"
     inkscape:cy="537.96197"
     inkscape:window-width="960"
     inkscape:window-height="1011"
     inkscape:window-x="20"
     inkscape:window-y="20"
     inkscape:window-maximized="0"
     inkscape:current-layer="layer1">
    <sodipodi:guide
       position="0,67.733336"
       orientation="0,255.99999"
       id="guide8"
       inkscape:locked="false" />
    <sodipodi:guide
       position="67.733329,67.733336"
       orientation="-255.99999,0"
       id="guide9"
       inkscape:locked="false" />
  </sodipodi:namedview>
  <defs
     id="defs1">
    <inkscape:path-effect
       effect="mirror_symmetry"
       start_point="0,67.733332"
       end_point="135.46666,67.733332"
       center_point="67.733332,67.733332"
       id="path-effect23"
       is_visible="true"
       lpeversion="1.2"
       lpesatellites=""
       mode="horizontal"
       discard_orig_path="false"
       fuse_paths="false"
       oposite_fuse="false"
       split_items="false"
       split_open="false"
       link_styles="false" />
    <inkscape:path-effect
       effect="mirror_symmetry"
       start_point="-38.419977,57.630466"
       end_point="166.57138,57.630466"
       center_point="64.0757,57.630466"
       id="path-effect2"
       is_visible="true"
       lpeversion="1.2"
       lpesatellites=""
       mode="horizontal"
       discard_orig_path="false"
       fuse_paths="false"
       oposite_fuse="false"
       split_items="false"
       split_open="false"
       link_styles="false" />
    <inkscape:path-effect
       effect="mirror_symmetry"
       start_point="0.76549658,66.371467"
       end_point="136.23216,66.371467"
       center_point="68.498829,66.371467"
       id="path-effect88"
       is_visible="true"
       lpeversion="1.2"
       lpesatellites=""
       mode="horizontal"
       discard_orig_path="false"
       fuse_paths="false"
       oposite_fuse="false"
       split_items="true"
       split_open="false"
       link_styles="false" />
    <inkscape:path-effect
       effect="mirror_symmetry"
       start_point="-28.223298,50.457862"
       end_point="197.33674,50.457862"
       center_point="84.556719,50.457862"
       id="path-effect87"
       is_visible="true"
       lpeversion="1.2"
       lpesatellites=""
       mode="horizontal"
       discard_orig_path="false"
       fuse_paths="false"
       oposite_fuse="false"
       split_items="true"
       split_open="false"
       link_styles="false" />
    <inkscape:path-effect
       effect="mirror_symmetry"
       start_point="-105.71658,7.2206043"
       end_point="242.82218,7.2206043"
       center_point="68.552801,7.2206043"
       id="path-effect87-9"
       is_visible="true"
       lpeversion="1.2"
       lpesatellites=""
       mode="horizontal"
       discard_orig_path="false"
       fuse_paths="false"
       oposite_fuse="false"
       split_items="true"
       split_open="false"
       link_styles="false" />
    <inkscape:path-effect
       effect="mirror_symmetry"
       start_point="-156.51773,4.2710802"
       end_point="357.68236,4.2710802"
       center_point="100.58231,4.2710802"
       id="path-effect87-9-2"
       is_visible="true"
       lpeversion="1.2"
       lpesatellites=""
       mode="horizontal"
       discard_orig_path="false"
       fuse_paths="false"
       oposite_fuse="false"
       split_items="true"
       split_open="false"
       link_styles="false" />
    <inkscape:path-effect
       effect="mirror_symmetry"
       start_point="-273.55068,-28.813085"
       end_point="448.9636,-28.813085"
       center_point="87.706461,-28.813085"
       id="path-effect87-9-2-9"
       is_visible="true"
       lpeversion="1.2"
       lpesatellites=""
       mode="horizontal"
       discard_orig_path="false"
       fuse_paths="false"
       oposite_fuse="false"
       split_items="true"
       split_open="false"
       link_styles="false" />
    <inkscape:path-effect
       effect="mirror_symmetry"
       start_point="-141.78582,52.992283"
       end_point="376.22293,52.992283"
       center_point="117.21856,52.992283"
       id="path-effect87-7"
       is_visible="true"
       lpeversion="1.2"
       lpesatellites=""
       mode="horizontal"
       discard_orig_path="false"
       fuse_paths="false"
       oposite_fuse="false"
       split_items="true"
       split_open="false"
       link_styles="false" />
    <inkscape:path-effect
       effect="mirror_symmetry"
       start_point="-85.850208,32.564814"
       end_point="432.15854,32.564814"
       center_point="173.15417,32.564814"
       id="path-effect87-7-8"
       is_visible="true"
       lpeversion="1.2"
       lpesatellites=""
       mode="horizontal"
       discard_orig_path="false"
       fuse_paths="false"
       oposite_fuse="false"
       split_items="true"
       split_open="false"
       link_styles="false" />
  </defs>
  <g
     inkscape:label="Calque 1"
     inkscape:groupmode="layer"
     id="layer1">
    <circle
       style="fill:none;fill-opacity:1;stroke:#000000;stroke-width:3.85315;stroke-linejoin:round;stroke-dasharray:none;stroke-opacity:1;paint-order:markers stroke fill"
       id="path10"
       cx="67.73333"
       cy="67.73333"
       r="64.219254" />
    <path
       id="rect10"
       style="fill:#000000;fill-opacity:1;stroke-width:0.464618;stroke-linejoin:round;stroke-dasharray:none;paint-order:markers stroke fill"
       d="M 65.691597 3.9041544 L 65.691597 53.722818 A 14.144187 14.144187 0 0 0 53.601895 67.714212 A 14.144187 14.144187 0 0 0 65.691597 81.705606 L 65.691597 131.58887 L 69.762149 131.58887 L 69.762149 81.713874 A 14.144187 14.144187 0 0 0 81.890091 67.714212 A 14.144187 14.144187 0 0 0 69.762149 53.7161 L 69.762149 3.9041544 L 65.691597 3.9041544 z M 67.746252 56.365551 A 11.348673 11.348673 0 0 1 79.094913 67.714212 A 11.348673 11.348673 0 0 1 67.746252 79.062873 A 11.348673 11.348673 0 0 1 56.39759 67.714212 A 11.348673 11.348673 0 0 1 67.746252 56.365551 z " />
    <circle
       style="fill:#000000;fill-opacity:1;stroke:#000000;stroke-width:0.232317;stroke-linejoin:round;stroke-dasharray:none;stroke-opacity:1;paint-order:markers stroke fill"
       id="path86"
       cx="31.810875"
       cy="104.8038"
       r="4.0497618" />
    <circle
       style="fill:#000000;fill-opacity:1;stroke:#000000;stroke-width:0.101159;stroke-linejoin:round;stroke-dasharray:none;stroke-opacity:1;paint-order:markers stroke fill"
       id="path86-9"
       cx="42.311893"
       cy="100.56976"
       r="1.763415" />
    <circle
       style="fill:#000000;fill-opacity:1;stroke:#000000;stroke-width:0.101159;stroke-linejoin:round;stroke-dasharray:none;stroke-opacity:1;paint-order:markers stroke fill"
       id="path86-9-7"
       cx="48.993382"
       cy="97.094025"
       r="1.763415" />
    <circle
       style="fill:none;fill-opacity:1;stroke:#000000;stroke-width:1.71228;stroke-linejoin:round;stroke-dasharray:none;stroke-opacity:1;paint-order:markers stroke fill"
       id="path86-6"
       cx="44.663166"
       cy="114.08753"
       r="2.6208403" />
    <circle
       style="fill:none;fill-opacity:1;stroke:#000000;stroke-width:1.16063;stroke-linejoin:round;stroke-dasharray:none;stroke-opacity:1;paint-order:markers stroke fill"
       id="path86-6-1"
       cx="57.655689"
       cy="93.041374"
       r="1.7764765" />
    <circle
       style="fill:none;fill-opacity:1;stroke:#000000;stroke-width:0.825997;stroke-linejoin:round;stroke-dasharray:none;stroke-opacity:1;paint-order:markers stroke fill"
       id="path86-6-1-0"
       cx="55.791435"
       cy="112.30951"
       r="1.2642856" />
    <g
       id="g23"
       inkscape:path-effect="#path-effect23">
      <g
         id="g6"
         transform="rotate(-48.406358,79.179767,88.597138)"
         style="stroke-width:5.29167;stroke-dasharray:none">
        <circle
           style="fill:none;stroke:#000000;stroke-width:2.6458333;stroke-linejoin:round;stroke-dasharray:none;stroke-opacity:1;paint-order:normal;fill-opacity:0;stroke-linecap:butt;stroke-dashoffset:12.69999962"
           id="circle4"
           d="m 67.665897,113.73374 c 0,1.69486 -1.373951,3.06881 -3.068805,3.06881 -1.694855,0 -3.068806,-1.37395 -3.068806,-3.06881 0,-1.69485 1.373951,-3.0688 3.068806,-3.0688 1.694854,0 3.068805,1.37395 3.068805,3.0688 z M 136.71161,52.445787 c 1.68289,0.201051 3.21012,-1.000215 3.41118,-2.683103 0.20105,-1.682887 -1.00022,-3.210121 -2.68311,-3.411172 -1.68288,-0.201051 -3.21012,1.000214 -3.41117,2.683102 -0.20105,1.682888 1.00022,3.210122 2.6831,3.411173 z"
           r="3.0688057"
           cy="113.73374"
           cx="64.597092" />
        <path
           style="fill:none;stroke:#000000;stroke-width:5.29167;stroke-linecap:butt;stroke-linejoin:miter;stroke-dasharray:none;stroke-opacity:1"
           d="m 83.70796,79.24979 -1.107171,18.600937 -12.558741,11.147673 -2.78103,2.46857 m 33.307152,-47.183027 18.60093,1.107171 12.55874,-11.147681 2.78104,-2.468561"
           id="path4"
           inkscape:original-d="m 83.70796,79.24979 -1.107171,18.600937 -12.558741,11.147673 -2.78103,2.46857" />
      </g>
      <g
         id="g22">
        <g
           id="g21">
          <path
             style="fill:none;fill-opacity:0;stroke:#000000;stroke-width:2.64583;stroke-linecap:butt;stroke-linejoin:round;stroke-dasharray:none;stroke-dashoffset:12.7;stroke-opacity:1;paint-order:normal"
             id="circle6"
             transform="rotate(-48.406358)"
             d="m 6.5339622,138.92728 c 0,1.69485 -1.3739511,3.0688 -3.0688056,3.0688 -1.6948546,0 -3.06880574,-1.37395 -3.06880574,-3.0688 0,-1.69486 1.37395114,-3.06881 3.06880574,-3.06881 1.6948545,0 3.0688056,1.37395 3.0688056,3.06881 z M 35.859559,112.89661 c 1.682888,0.20105 3.210122,-1.00021 3.411173,-2.6831 0.201051,-1.68289 -1.000215,-3.21012 -2.683102,-3.41117 -1.682888,-0.20105 -3.210122,1.00021 -3.411173,2.6831 -0.201051,1.68289 1.000215,3.21012 2.683102,3.41117 z"
             sodipodi:type="arc"
             sodipodi:cx="3.4651566"
             sodipodi:cy="138.92728"
             sodipodi:rx="3.0688057"
             sodipodi:ry="3.0688057" />
          <path
             style="fill:none;stroke:#000000;stroke-width:5.29167;stroke-linecap:butt;stroke-linejoin:miter;stroke-dasharray:none;stroke-opacity:1"
             d="M 79.402188,73.816344 104.83728,88.501301 M 79.402188,61.650321 104.83728,46.965364"
             id="path5"
             inkscape:original-d="M 79.402188,73.816344 104.83728,88.501301" />
        </g>
        <g
           id="g8">
          <path
             style="fill:none;fill-opacity:0;stroke:#000000;stroke-width:2.64583;stroke-linecap:round;stroke-linejoin:round;stroke-dasharray:none;stroke-dashoffset:12.7;stroke-opacity:1;paint-order:stroke markers fill"
             id="circle7"
             transform="rotate(-48.406358)"
             d="m 23.036489,137.39575 c 0,1.69486 -1.373951,3.06881 -3.068805,3.06881 -1.694855,0 -3.068806,-1.37395 -3.068806,-3.06881 0,-1.69485 1.373951,-3.0688 3.068806,-3.0688 1.694854,0 3.068805,1.37395 3.068805,3.0688 z m 9.344758,-8.29481 c 1.682888,0.20105 3.210122,-1.00021 3.411173,-2.6831 0.201051,-1.68289 -1.000215,-3.21012 -2.683103,-3.41117 -1.682887,-0.20105 -3.210121,1.00021 -3.411172,2.6831 -0.201051,1.68289 1.000215,3.21012 2.683102,3.41117 z"
             sodipodi:type="arc"
             sodipodi:cx="19.967684"
             sodipodi:cy="137.39575"
             sodipodi:rx="3.0688057"
             sodipodi:ry="3.0688057" />
          <path
             style="fill:none;stroke:#000000;stroke-width:5.29167;stroke-linecap:butt;stroke-linejoin:miter;stroke-dasharray:none;stroke-opacity:1"
             d="m 83.907613,76.042867 29.369917,-10e-7 m -29.369917,-16.619068 29.369917,1e-6"
             id="path6"
             inkscape:original-d="m 83.907613,76.042867 29.369917,-10e-7" />
        </g>
      </g>
    </g>
    <path
       id="path8"
       d="m 60.797392,46.188891 a 1.763415,1.763415 0 0 0 -1.763415,-1.763415 1.763415,1.763415 0 0 0 -1.763415,1.763415 1.763415,1.763415 0 0 0 1.763415,1.763415 1.763415,1.763415 0 0 0 1.763415,-1.763415 z"
       style="fill:#000000;fill-opacity:1;stroke:#000000;stroke-width:0.101159;stroke-linejoin:round;stroke-dasharray:none;stroke-opacity:1;paint-order:markers stroke fill" />
    <path
       id="path9"
       d="m 31.14616,60.328115 a 2.6208402,2.6208402 0 0 0 -2.62084,-2.62084 2.6208402,2.6208402 0 0 0 -2.62084,2.62084 2.6208402,2.6208402 0 0 0 2.62084,2.620841 2.6208402,2.6208402 0 0 0 2.62084,-2.620841 z"
       style="fill:none;fill-opacity:1;stroke:#000000;stroke-width:1.71228;stroke-linejoin:round;stroke-dasharray:none;stroke-opacity:1;paint-order:markers stroke fill" />
    <path
       id="path14"
       d="m 47.38574,45.745904 a 4.0497617,4.0497617 0 0 0 -4.049762,-4.049761 4.0497617,4.0497617 0 0 0 -4.049762,4.049761 4.0497617,4.0497617 0 0 0 4.049762,4.049762 4.0497617,4.0497617 0 0 0 4.049762,-4.049762 z"
       style="fill:#000000;fill-opacity:1;stroke:#000000;stroke-width:0.232317;stroke-linejoin:round;stroke-dasharray:none;stroke-opacity:1;paint-order:markers stroke fill" />
    <path
       id="path15"
       d="m 48.949332,56.501758 a 1.763415,1.763415 0 0 0 -1.763415,-1.763415 1.763415,1.763415 0 0 0 -1.763415,1.763415 1.763415,1.763415 0 0 0 1.763415,1.763415 1.763415,1.763415 0 0 0 1.763415,-1.763415 z"
       style="fill:#000000;fill-opacity:1;stroke:#000000;stroke-width:0.101159;stroke-linejoin:round;stroke-dasharray:none;stroke-opacity:1;paint-order:markers stroke fill" />
    <circle
       style="fill:#000000;fill-opacity:1;stroke:#000000;stroke-width:0.101159;stroke-linejoin:round;stroke-dasharray:none;stroke-opacity:1;paint-order:markers stroke fill"
       id="circle15"
       cx="36.801258"
       cy="86.214714"
       r="1.763415" />
    <circle
       style="fill:#000000;fill-opacity:1;stroke:#000000;stroke-width:0.101159;stroke-linejoin:round;stroke-dasharray:none;stroke-opacity:1;paint-order:markers stroke fill"
       id="circle16"
       cx="30.819874"
       cy="93.876015"
       r="1.763415" />
    <circle
       style="fill:#000000;fill-opacity:1;stroke:#000000;stroke-width:0.232317;stroke-linejoin:round;stroke-dasharray:none;stroke-opacity:1;paint-order:markers stroke fill"
       id="circle17"
       cx="29.653505"
       cy="33.913277"
       r="4.0497618" />
    <circle
       style="fill:#000000;fill-opacity:1;stroke:#000000;stroke-width:0.101159;stroke-linejoin:round;stroke-dasharray:none;stroke-opacity:1;paint-order:markers stroke fill"
       id="circle18"
       cx="21.604092"
       cy="49.270931"
       r="1.763415" />
    <circle
       style="fill:none;fill-opacity:1;stroke:#000000;stroke-width:1.71228;stroke-linejoin:round;stroke-dasharray:none;stroke-opacity:1;paint-order:markers stroke fill"
       id="circle19"
       cx="42.369637"
       cy="23.487753"
       r="2.6208403" />
    <circle
       style="fill:#000000;fill-opacity:1;stroke:#000000;stroke-width:0.101159;stroke-linejoin:round;stroke-dasharray:none;stroke-opacity:1;paint-order:markers stroke fill"
       id="circle20"
       cx="18.558811"
       cy="68.947998"
       r="1.763415" />
    <circle
       style="fill:#000000;fill-opacity:1;stroke:#000000;stroke-width:0.101159;stroke-linejoin:round;stroke-dasharray:none;stroke-opacity:1;paint-order:markers stroke fill"
       id="circle21"
       cx="28.948929"
       cy="77.63504"
       r="1.763415" />
    <path
       id="path23"
       d="m 52.1091,32.891972 a 1.763415,1.763415 0 0 0 -1.763415,-1.763415 1.763415,1.763415 0 0 0 -1.763415,1.763415 1.763415,1.763415 0 0 0 1.763415,1.763415 1.763415,1.763415 0 0 0 1.763415,-1.763415 z"
       style="fill:#000000;fill-opacity:1;stroke:#000000;stroke-width:0.101159;stroke-linejoin:round;stroke-dasharray:none;stroke-opacity:1;paint-order:markers stroke fill" />
    <circle
       style="fill:#000000;fill-opacity:1;stroke:#000000;stroke-width:0.101159;stroke-linejoin:round;stroke-dasharray:none;stroke-opacity:1;paint-order:markers stroke fill"
       id="circle23"
       cx="56.62466"
       cy="16.245037"
       r="1.763415" />
  </g>
</svg>
