<?xml version="1.0" encoding="UTF-8" standalone="no"?>
<!-- Created with Inkscape (http://www.inkscape.org/) -->

<svg
   width="512"
   height="512"
   viewBox="0 0 135.46666 135.46667"
   version="1.1"
   id="svg1"
   inkscape:version="1.3.2 (091e20ef0f, 2023-11-25, custom)"
   sodipodi:docname="gateau.svg"
   xmlns:inkscape="http://www.inkscape.org/namespaces/inkscape"
   xmlns:sodipodi="http://sodipodi.sourceforge.net/DTD/sodipodi-0.dtd"
   xmlns="http://www.w3.org/2000/svg"
   xmlns:svg="http://www.w3.org/2000/svg">
  <sodipodi:namedview
     id="namedview1"
     pagecolor="#ffffff"
     bordercolor="#999999"
     borderopacity="1"
     inkscape:showpageshadow="0"
     inkscape:pageopacity="0"
     inkscape:pagecheckerboard="0"
     inkscape:deskcolor="#d1d1d1"
     inkscape:document-units="px"
     showguides="true"
     inkscape:zoom="0.92908311"
     inkscape:cx="88.797223"
     inkscape:cy="391.24594"
     inkscape:window-width="960"
     inkscape:window-height="1011"
     inkscape:window-x="20"
     inkscape:window-y="20"
     inkscape:window-maximized="0"
     inkscape:current-layer="layer1">
    <sodipodi:guide
       position="0,67.733336"
       orientation="0,255.99999"
       id="guide8"
       inkscape:locked="false" />
    <sodipodi:guide
       position="67.733329,67.733336"
       orientation="-255.99999,0"
       id="guide9"
       inkscape:locked="false" />
  </sodipodi:namedview>
  <defs
     id="defs1">
    <inkscape:path-effect
       effect="mirror_symmetry"
       start_point="-38.419977,57.630466"
       end_point="166.57138,57.630466"
       center_point="64.0757,57.630466"
       id="path-effect2"
       is_visible="true"
       lpeversion="1.2"
       lpesatellites=""
       mode="horizontal"
       discard_orig_path="false"
       fuse_paths="false"
       oposite_fuse="false"
       split_items="false"
       split_open="false"
       link_styles="false" />
    <inkscape:path-effect
       effect="mirror_symmetry"
       start_point="0.76549658,66.371467"
       end_point="136.23216,66.371467"
       center_point="68.498829,66.371467"
       id="path-effect88"
       is_visible="true"
       lpeversion="1.2"
       lpesatellites=""
       mode="horizontal"
       discard_orig_path="false"
       fuse_paths="false"
       oposite_fuse="false"
       split_items="true"
       split_open="false"
       link_styles="false" />
    <inkscape:path-effect
       effect="mirror_symmetry"
       start_point="-28.223298,50.457862"
       end_point="197.33674,50.457862"
       center_point="84.556719,50.457862"
       id="path-effect87"
       is_visible="true"
       lpeversion="1.2"
       lpesatellites=""
       mode="horizontal"
       discard_orig_path="false"
       fuse_paths="false"
       oposite_fuse="false"
       split_items="true"
       split_open="false"
       link_styles="false" />
    <inkscape:path-effect
       effect="mirror_symmetry"
       start_point="-105.71658,7.2206043"
       end_point="242.82218,7.2206043"
       center_point="68.552801,7.2206043"
       id="path-effect87-9"
       is_visible="true"
       lpeversion="1.2"
       lpesatellites=""
       mode="horizontal"
       discard_orig_path="false"
       fuse_paths="false"
       oposite_fuse="false"
       split_items="true"
       split_open="false"
       link_styles="false" />
    <inkscape:path-effect
       effect="mirror_symmetry"
       start_point="-156.51773,4.2710802"
       end_point="357.68236,4.2710802"
       center_point="100.58231,4.2710802"
       id="path-effect87-9-2"
       is_visible="true"
       lpeversion="1.2"
       lpesatellites=""
       mode="horizontal"
       discard_orig_path="false"
       fuse_paths="false"
       oposite_fuse="false"
       split_items="true"
       split_open="false"
       link_styles="false" />
    <inkscape:path-effect
       effect="mirror_symmetry"
       start_point="-273.55068,-28.813085"
       end_point="448.9636,-28.813085"
       center_point="87.706461,-28.813085"
       id="path-effect87-9-2-9"
       is_visible="true"
       lpeversion="1.2"
       lpesatellites=""
       mode="horizontal"
       discard_orig_path="false"
       fuse_paths="false"
       oposite_fuse="false"
       split_items="true"
       split_open="false"
       link_styles="false" />
    <inkscape:path-effect
       effect="mirror_symmetry"
       start_point="-141.78582,52.992283"
       end_point="376.22293,52.992283"
       center_point="117.21856,52.992283"
       id="path-effect87-7"
       is_visible="true"
       lpeversion="1.2"
       lpesatellites=""
       mode="horizontal"
       discard_orig_path="false"
       fuse_paths="false"
       oposite_fuse="false"
       split_items="true"
       split_open="false"
       link_styles="false" />
    <inkscape:path-effect
       effect="mirror_symmetry"
       start_point="-85.850208,32.564814"
       end_point="432.15854,32.564814"
       center_point="173.15417,32.564814"
       id="path-effect87-7-8"
       is_visible="true"
       lpeversion="1.2"
       lpesatellites=""
       mode="horizontal"
       discard_orig_path="false"
       fuse_paths="false"
       oposite_fuse="false"
       split_items="true"
       split_open="false"
       link_styles="false" />
  </defs>
  <g
     inkscape:label="Calque 1"
     inkscape:groupmode="layer"
     id="layer1">
    <circle
       style="fill:none;fill-opacity:1;stroke:#000000;stroke-width:3.85315;stroke-linejoin:round;stroke-dasharray:none;stroke-opacity:1;paint-order:markers stroke fill"
       id="path10"
       cx="67.73333"
       cy="67.73333"
       r="64.219254" />
    <path
       id="rect10"
       style="fill:#000000;fill-opacity:1;stroke-width:0.464618;stroke-linejoin:round;stroke-dasharray:none;paint-order:markers stroke fill"
       d="M 65.691597 3.9041544 L 65.691597 53.722818 A 14.144187 14.144187 0 0 0 53.601895 67.714212 A 14.144187 14.144187 0 0 0 65.691597 81.705606 L 65.691597 131.58887 L 69.762149 131.58887 L 69.762149 81.713874 A 14.144187 14.144187 0 0 0 81.890091 67.714212 A 14.144187 14.144187 0 0 0 69.762149 53.7161 L 69.762149 3.9041544 L 65.691597 3.9041544 z M 67.746252 56.365551 A 11.348673 11.348673 0 0 1 79.094913 67.714212 A 11.348673 11.348673 0 0 1 67.746252 79.062873 A 11.348673 11.348673 0 0 1 56.39759 67.714212 A 11.348673 11.348673 0 0 1 67.746252 56.365551 z " />
    <circle
       style="fill:#000000;fill-opacity:1;stroke:#000000;stroke-width:0.232317;stroke-linejoin:round;stroke-dasharray:none;stroke-opacity:1;paint-order:markers stroke fill"
       id="path86"
       cx="35.228207"
       cy="90.758255"
       r="4.0497618" />
    <circle
       style="fill:#000000;fill-opacity:1;stroke:#000000;stroke-width:0.101159;stroke-linejoin:round;stroke-dasharray:none;stroke-opacity:1;paint-order:markers stroke fill"
       id="path86-9"
       cx="34.728622"
       cy="76.770035"
       r="1.763415" />
    <circle
       style="fill:#000000;fill-opacity:1;stroke:#000000;stroke-width:0.101159;stroke-linejoin:round;stroke-dasharray:none;stroke-opacity:1;paint-order:markers stroke fill"
       id="path86-9-7"
       cx="26.722746"
       cy="84.977013"
       r="1.763415" />
    <circle
       style="fill:none;fill-opacity:1;stroke:#000000;stroke-width:1.71228;stroke-linejoin:round;stroke-dasharray:none;stroke-opacity:1;paint-order:markers stroke fill"
       id="path86-6"
       cx="50.613186"
       cy="101.02567"
       r="2.6208403" />
    <circle
       style="fill:none;fill-opacity:1;stroke:#000000;stroke-width:1.16063;stroke-linejoin:round;stroke-dasharray:none;stroke-opacity:1;paint-order:markers stroke fill"
       id="path86-6-1"
       cx="45.586502"
       cy="92.525452"
       r="1.7764765" />
    <circle
       style="fill:none;fill-opacity:1;stroke:#000000;stroke-width:0.825997;stroke-linejoin:round;stroke-dasharray:none;stroke-opacity:1;paint-order:markers stroke fill"
       id="path86-6-1-0"
       cx="52.502972"
       cy="92.876884"
       r="1.2642856" />
    <g
       id="g6"
       transform="rotate(-48.406358,79.179767,88.597138)"
       style="stroke-width:5.29167;stroke-dasharray:none">
      <circle
         style="fill:#ffffff;stroke:#000000;stroke-width:5.29167;stroke-linejoin:round;stroke-dasharray:none;stroke-opacity:1;paint-order:markers stroke fill"
         id="circle4"
         cx="64.597092"
         cy="113.73374"
         r="3.0688057" />
      <path
         style="fill:none;stroke:#000000;stroke-width:5.29167;stroke-linecap:butt;stroke-linejoin:miter;stroke-dasharray:none;stroke-opacity:1"
         d="m 83.70796,79.24979 -1.107171,18.600937 -12.558741,11.147673 -2.78103,2.46857"
         id="path4" />
    </g>
    <circle
       style="fill:#ffffff;stroke:#000000;stroke-width:5.29167;stroke-linejoin:round;stroke-dasharray:none;stroke-opacity:1;paint-order:markers stroke fill"
       id="circle6"
       cx="4.3774047"
       cy="142.01149"
       r="3.0688057"
       transform="rotate(-48.406358)" />
    <path
       style="fill:none;stroke:#000000;stroke-width:5.29167;stroke-linecap:butt;stroke-linejoin:miter;stroke-dasharray:none;stroke-opacity:1"
       d="M 79.402188,73.816344 104.83728,88.501301"
       id="path5" />
    <g
       id="g8">
      <circle
         style="fill:#ffffff;stroke:#000000;stroke-width:5.29167;stroke-linejoin:round;stroke-dasharray:none;stroke-opacity:1;paint-order:markers stroke fill"
         id="circle7"
         cx="21.42557"
         cy="138.88519"
         r="3.0688057"
         transform="rotate(-48.406358)" />
      <path
         style="fill:none;stroke:#000000;stroke-width:5.29167;stroke-linecap:butt;stroke-linejoin:miter;stroke-dasharray:none;stroke-opacity:1"
         d="m 83.907613,76.042867 29.369917,-10e-7"
         id="path6" />
    </g>
    <path
       transform="matrix(0.26151424,0,0,-0.26151424,37.079011,81.591569)"
       id="path8"
       d="m 48.051359,81.308968 a 6.7430935,6.7430935 0 0 1 -6.743093,6.743093 6.7430935,6.7430935 0 0 1 -6.743094,-6.743093 6.7430935,6.7430935 0 0 1 6.743094,-6.743094 6.7430935,6.7430935 0 0 1 6.743093,6.743094 z"
       style="fill:#000000;fill-opacity:1;stroke:#000000;stroke-width:0.386821;stroke-linejoin:round;stroke-dasharray:none;stroke-opacity:1;paint-order:markers stroke fill" />
    <path
       transform="matrix(0.38867031,0,0,-0.38867031,41.088894,70.539767)"
       id="path9"
       d="m 48.051359,81.308968 a 6.7430935,6.7430935 0 0 1 -6.743093,6.743093 6.7430935,6.7430935 0 0 1 -6.743094,-6.743093 6.7430935,6.7430935 0 0 1 6.743094,-6.743094 6.7430935,6.7430935 0 0 1 6.743093,6.743094 z"
       style="fill:none;fill-opacity:1;stroke:#000000;stroke-width:4.40547;stroke-linejoin:round;stroke-dasharray:none;stroke-opacity:1;paint-order:markers stroke fill" />
    <path
       transform="matrix(0.18749341,0,0,-0.18749341,51.288949,62.331069)"
       id="path12"
       d="m 48.051359,81.308968 a 6.7430935,6.7430935 0 0 1 -6.743093,6.743093 6.7430935,6.7430935 0 0 1 -6.743094,-6.743093 6.7430935,6.7430935 0 0 1 6.743094,-6.743094 6.7430935,6.7430935 0 0 1 6.743093,6.743094 z"
       style="fill:none;fill-opacity:1;stroke:#000000;stroke-width:4.40547;stroke-linejoin:round;stroke-dasharray:none;stroke-opacity:1;paint-order:markers stroke fill" />
    <path
       transform="matrix(0.26345127,0,0,-0.26345127,41.234794,68.858554)"
       id="path13"
       d="m 48.051359,81.308968 a 6.7430935,6.7430935 0 0 1 -6.743093,6.743093 6.7430935,6.7430935 0 0 1 -6.743094,-6.743093 6.7430935,6.7430935 0 0 1 6.743094,-6.743094 6.7430935,6.7430935 0 0 1 6.743093,6.743094 z"
       style="fill:none;fill-opacity:1;stroke:#000000;stroke-width:4.40547;stroke-linejoin:round;stroke-dasharray:none;stroke-opacity:1;paint-order:markers stroke fill" />
    <path
       transform="matrix(0.6005792,0,0,-0.6005792,16.950326,98.037275)"
       id="path14"
       d="m 48.051359,81.308968 a 6.7430935,6.7430935 0 0 1 -6.743093,6.743093 6.7430935,6.7430935 0 0 1 -6.743094,-6.743093 6.7430935,6.7430935 0 0 1 6.743094,-6.743094 6.7430935,6.7430935 0 0 1 6.743093,6.743094 z"
       style="fill:#000000;fill-opacity:1;stroke:#000000;stroke-width:0.386821;stroke-linejoin:round;stroke-dasharray:none;stroke-opacity:1;paint-order:markers stroke fill" />
    <path
       transform="matrix(0.26151424,0,0,-0.26151424,22.451052,76.249495)"
       id="path15"
       d="m 48.051359,81.308968 a 6.7430935,6.7430935 0 0 1 -6.743093,6.743093 6.7430935,6.7430935 0 0 1 -6.743094,-6.743093 6.7430935,6.7430935 0 0 1 6.743094,-6.743094 6.7430935,6.7430935 0 0 1 6.743093,6.743094 z"
       style="fill:#000000;fill-opacity:1;stroke:#000000;stroke-width:0.386821;stroke-linejoin:round;stroke-dasharray:none;stroke-opacity:1;paint-order:markers stroke fill" />
  </g>
</svg>
