<?xml version="1.0" encoding="UTF-8" standalone="no"?>
<!-- Created with Inkscape (http://www.inkscape.org/) -->

<svg
   width="512"
   height="512"
   viewBox="0 0 135.46666 135.46667"
   version="1.1"
   id="svg1"
   inkscape:version="1.3.2 (091e20ef0f, 2023-11-25, custom)"
   sodipodi:docname="simplified.svg"
   inkscape:export-filename="simplified.png"
   inkscape:export-xdpi="96"
   inkscape:export-ydpi="96"
   xmlns:inkscape="http://www.inkscape.org/namespaces/inkscape"
   xmlns:sodipodi="http://sodipodi.sourceforge.net/DTD/sodipodi-0.dtd"
   xmlns="http://www.w3.org/2000/svg"
   xmlns:svg="http://www.w3.org/2000/svg">
  <sodipodi:namedview
     id="namedview1"
     pagecolor="#ffffff"
     bordercolor="#999999"
     borderopacity="1"
     inkscape:showpageshadow="0"
     inkscape:pageopacity="0"
     inkscape:pagecheckerboard="0"
     inkscape:deskcolor="#d1d1d1"
     inkscape:document-units="px"
     showguides="true"
     inkscape:zoom="1.0726226"
     inkscape:cx="12.585974"
     inkscape:cy="323.04001"
     inkscape:window-width="1920"
     inkscape:window-height="1011"
     inkscape:window-x="0"
     inkscape:window-y="0"
     inkscape:window-maximized="1"
     inkscape:current-layer="layer2">
    <sodipodi:guide
       position="0,67.733336"
       orientation="0,255.99999"
       id="guide8"
       inkscape:locked="false" />
    <sodipodi:guide
       position="67.733329,67.733336"
       orientation="-255.99999,0"
       id="guide9"
       inkscape:locked="false" />
  </sodipodi:namedview>
  <defs
     id="defs1">
    <inkscape:path-effect
       effect="mirror_symmetry"
       start_point="0,67.733332"
       end_point="135.46666,67.733332"
       center_point="67.733332,67.733332"
       id="path-effect23"
       is_visible="true"
       lpeversion="1.2"
       lpesatellites=""
       mode="horizontal"
       discard_orig_path="false"
       fuse_paths="false"
       oposite_fuse="false"
       split_items="false"
       split_open="false"
       link_styles="false" />
    <filter
       style="color-interpolation-filters:sRGB;"
       inkscape:label="Drop Shadow"
       id="filter82"
       x="0"
       y="0"
       width="1.0109001"
       height="1.055938">
      <feFlood
         result="flood"
         in="SourceGraphic"
         flood-opacity="0.901961"
         flood-color="rgb(255,255,255)"
         id="feFlood81" />
      <feGaussianBlur
         result="blur"
         in="SourceGraphic"
         stdDeviation="0.000000"
         id="feGaussianBlur81" />
      <feOffset
         result="offset"
         in="blur"
         dx="1.400000"
         dy="4.500000"
         id="feOffset81" />
      <feComposite
         result="comp1"
         operator="out"
         in="flood"
         in2="offset"
         id="feComposite81" />
      <feComposite
         result="comp2"
         operator="in"
         in="comp1"
         in2="SourceGraphic"
         id="feComposite82" />
    </filter>
    <filter
       style="color-interpolation-filters:sRGB;"
       inkscape:label="Drop Shadow"
       id="filter112"
       x="-0.016480597"
       y="-0.1840996"
       width="1.0329612"
       height="1.2353055">
      <feFlood
         result="flood"
         in="SourceGraphic"
         flood-opacity="0.160784"
         flood-color="rgb(18,18,18)"
         id="feFlood111" />
      <feGaussianBlur
         result="blur"
         in="SourceGraphic"
         stdDeviation="0.000000"
         id="feGaussianBlur111" />
      <feOffset
         result="offset"
         in="blur"
         dx="-0.000000"
         dy="-5.000000"
         id="feOffset111" />
      <feComposite
         result="comp1"
         operator="out"
         in="flood"
         in2="offset"
         id="feComposite111" />
      <feComposite
         result="comp2"
         operator="in"
         in="comp1"
         in2="SourceGraphic"
         id="feComposite112" />
    </filter>
  </defs>
  <g
     inkscape:label="Base"
     inkscape:groupmode="layer"
     id="layer1">
    <circle
       style="fill:#f1ba77;fill-opacity:1;stroke:#1d1606;stroke-width:3.85315;stroke-linejoin:round;stroke-dasharray:none;stroke-opacity:1;paint-order:markers stroke fill"
       id="Cookie_dough"
       cx="67.73333"
       cy="67.73333"
       r="64.219254" />
    <path
       style="fill:#c8b196;fill-opacity:1;stroke:#1d1606;stroke-width:3.85315;stroke-linejoin:round;stroke-dasharray:none;stroke-opacity:1;paint-order:markers stroke fill;filter:url(#filter112)"
       d="M 9.2867715,94.328608 A 64.219254,64.219254 0 0 0 67.733332,131.95267 64.219254,64.219254 0 0 0 126.17989,94.328608 Z"
       id="circle82" />
    <path
       id="circle69"
       style="fill:#c8b196;fill-opacity:1;stroke:none;stroke-width:3.85315;stroke-linejoin:round;stroke-dasharray:none;stroke-opacity:1;paint-order:markers stroke fill;filter:url(#filter82)"
       inkscape:label="Specular"
       d="M 67.733332 3.5139974 A 64.219254 64.219254 0 0 0 3.5139974 67.733332 A 64.219254 64.219254 0 0 0 5.7097289 83.960249 L 129.75694 83.960249 A 64.219254 64.219254 0 0 0 131.95267 67.733332 A 64.219254 64.219254 0 0 0 67.733332 3.5139974 z " />
    <path
       id="Split"
       style="display:inline;fill:#1d1606;fill-opacity:1;stroke-width:0.466359;stroke-linejoin:round;stroke-dasharray:none;paint-order:markers stroke fill"
       d="M 65.691597,3.481101 V 53.673793 A 14.144187,14.250378 0 0 0 53.601895,67.770231 14.144187,14.250378 0 0 0 65.691597,81.866669 v 50.257781 h 4.070552 V 81.875 A 14.144187,14.250378 0 0 0 81.890091,67.770231 14.144187,14.250378 0 0 0 69.762149,53.667025 V 3.481101 Z m 2.054655,52.855266 A 11.348673,11.433876 0 0 1 79.094913,67.770231 11.348673,11.433876 0 0 1 67.746252,79.204095 11.348673,11.433876 0 0 1 56.39759,67.770231 11.348673,11.433876 0 0 1 67.746252,56.336367 Z">
      <title
         id="title69">Separation</title>
    </path>
  </g>
  <g
     inkscape:groupmode="layer"
     id="layer2"
     inkscape:label="Additions">
    <g
       id="Chips"
       style="display:inline;fill:#2e210f;fill-opacity:1;stroke:#241a0b;stroke-opacity:1;stroke-width:2.6458333;stroke-dasharray:none">
      <circle
         style="fill:#2e210f;fill-opacity:1;stroke:#241a0b;stroke-width:5.91721;stroke-linejoin:round;stroke-dasharray:none;stroke-opacity:1;paint-order:markers stroke fill"
         id="circle16"
         cx="27.836872"
         cy="76.997673"
         r="3.9437547" />
      <circle
         style="fill:#2e210f;fill-opacity:1;stroke:#241a0b;stroke-width:7.42512;stroke-linejoin:round;stroke-dasharray:none;stroke-opacity:1;paint-order:markers stroke fill"
         id="circle20"
         cx="28.233263"
         cy="46.02718"
         r="4.9487529" />
      <circle
         style="fill:#2e210f;fill-opacity:1;stroke:#241a0b;stroke-width:6.11575;stroke-linejoin:round;stroke-dasharray:none;stroke-opacity:1;paint-order:markers stroke fill"
         id="circle21"
         cx="51.771667"
         cy="24.475023"
         r="4.076076" />
      <circle
         style="fill:#2e210f;fill-opacity:1;stroke:#241a0b;stroke-width:2.6458333;stroke-linejoin:round;stroke-dasharray:none;stroke-opacity:1;paint-order:markers stroke fill"
         id="path86"
         cx="31.810875"
         cy="104.8038"
         r="4.0497618" />
      <circle
         style="fill:#2e210f;fill-opacity:1;stroke:#241a0b;stroke-width:5.91721;stroke-linejoin:round;stroke-dasharray:none;stroke-opacity:1;paint-order:markers stroke fill"
         id="circle1"
         cx="56.093307"
         cy="96.155602"
         r="3.9437547" />
    </g>
    <g
       id="Connections"
       inkscape:path-effect="#path-effect23">
      <g
         id="g6"
         transform="rotate(-48.406358,79.179767,88.597138)"
         style="stroke-width:5.29167;stroke-dasharray:none">
        <path
           style="fill:none;fill-opacity:0;stroke:#1d1606;stroke-width:7.9375;stroke-linecap:butt;stroke-linejoin:round;stroke-dasharray:none;stroke-dashoffset:12.7;stroke-opacity:1;paint-order:normal"
           id="circle4"
           d="m 66.598278,112.33617 c 0,1.69485 -1.373951,3.0688 -3.068806,3.0688 -1.694854,0 -3.068805,-1.37395 -3.068805,-3.0688 0,-1.69486 1.373951,-3.06881 3.068805,-3.06881 1.694855,0 3.068806,1.37395 3.068806,3.06881 z M 135.45055,51.219919 c 1.68289,0.201051 3.21012,-1.000215 3.41117,-2.683102 0.20106,-1.682888 -1.00021,-3.210122 -2.6831,-3.411173 -1.68289,-0.201051 -3.21012,1.000215 -3.41117,2.683102 -0.20105,1.682888 1.00021,3.210122 2.6831,3.411173 z"
           sodipodi:type="arc"
           sodipodi:cx="63.529472"
           sodipodi:cy="112.33617"
           sodipodi:rx="3.0688057"
           sodipodi:ry="3.0688057" />
        <path
           style="fill:none;stroke:#1d1606;stroke-width:7.9375;stroke-linecap:butt;stroke-linejoin:miter;stroke-dasharray:none;stroke-opacity:1"
           d="m 82.64034,77.852223 -1.107171,18.600937 -12.558741,11.14767 -2.78103,2.46857 m 33.113715,-47.011324 18.600937,1.107171 12.55873,-11.147682 2.78104,-2.468561"
           id="path4"
           inkscape:original-d="m 82.64034,77.852223 -1.107171,18.600937 -12.558741,11.14767 -2.78103,2.46857" />
      </g>
      <g
         id="g22">
        <g
           id="g21">
          <path
             style="fill:none;fill-opacity:0;stroke:#1d1606;stroke-width:7.9374999;stroke-linecap:butt;stroke-linejoin:round;stroke-dasharray:none;stroke-dashoffset:12.7;stroke-opacity:1;paint-order:normal"
             id="circle6"
             transform="rotate(-48.406358)"
             sodipodi:type="arc"
             sodipodi:cx="3.4651566"
             sodipodi:cy="138.92728"
             sodipodi:rx="3.0688057"
             sodipodi:ry="3.0688057"
             d="m 6.5339622,138.92728 c 0,1.69485 -1.3739511,3.0688 -3.0688056,3.0688 -1.6948546,0 -3.06880574,-1.37395 -3.06880574,-3.0688 0,-1.69486 1.37395114,-3.06881 3.06880574,-3.06881 1.6948545,0 3.0688056,1.37395 3.0688056,3.06881 z M 35.859559,112.89661 c 1.682888,0.20105 3.210122,-1.00021 3.411173,-2.6831 0.201051,-1.68289 -1.000215,-3.21012 -2.683102,-3.41117 -1.682888,-0.20105 -3.210122,1.00021 -3.411173,2.6831 -0.201051,1.68289 1.000215,3.21012 2.683102,3.41117 z" />
          <path
             style="fill:none;stroke:#1d1606;stroke-width:7.9374999;stroke-linecap:butt;stroke-linejoin:miter;stroke-dasharray:none;stroke-opacity:1"
             d="M 79.402188,73.816344 104.83728,88.501301 M 79.402188,61.650321 104.83728,46.965364"
             id="path5"
             inkscape:original-d="M 79.402188,73.816344 104.83728,88.501301" />
        </g>
        <g
           id="g8">
          <path
             style="fill:none;fill-opacity:0;stroke:#1d1606;stroke-width:7.9374999;stroke-linecap:round;stroke-linejoin:round;stroke-dasharray:none;stroke-dashoffset:12.7;stroke-opacity:1;paint-order:stroke markers fill"
             id="circle7"
             transform="rotate(-48.406358)"
             sodipodi:type="arc"
             sodipodi:cx="19.967684"
             sodipodi:cy="137.39575"
             sodipodi:rx="3.0688057"
             sodipodi:ry="3.0688057"
             d="m 23.036489,137.39575 c 0,1.69486 -1.373951,3.06881 -3.068805,3.06881 -1.694855,0 -3.068806,-1.37395 -3.068806,-3.06881 0,-1.69485 1.373951,-3.0688 3.068806,-3.0688 1.694854,0 3.068805,1.37395 3.068805,3.0688 z m 9.344758,-8.29481 c 1.682888,0.20105 3.210122,-1.00021 3.411173,-2.6831 0.201051,-1.68289 -1.000215,-3.21012 -2.683103,-3.41117 -1.682887,-0.20105 -3.210121,1.00021 -3.411172,2.6831 -0.201051,1.68289 1.000215,3.21012 2.683102,3.41117 z" />
          <path
             style="fill:none;stroke:#1d1606;stroke-width:7.9374999;stroke-linecap:butt;stroke-linejoin:miter;stroke-dasharray:none;stroke-opacity:1"
             d="m 83.907613,76.042867 29.369917,-10e-7 m -29.369917,-16.619068 29.369917,1e-6"
             id="path6"
             inkscape:original-d="m 83.907613,76.042867 29.369917,-10e-7" />
        </g>
      </g>
    </g>
  </g>
</svg>
